<svg aria-hidden="true" style="position: absolute; width: 0; height: 0; overflow: hidden;" version="1.1" xmlns="http://www.w3.org/2000/svg" xmlns:xlink="http://www.w3.org/1999/xlink">
<defs>
<symbol id="icon-instagram" viewBox="0 0 32 32">
<path fill="none" stroke="#fff" style="stroke: var(--color1, #fff)" stroke-linejoin="round" stroke-linecap="round" stroke-miterlimit="4" stroke-width="2.6667" d="M22.667 2.667h-13.333c-3.682 0-6.667 2.985-6.667 6.667v0 13.333c0 3.682 2.985 6.667 6.667 6.667v0h13.333c3.682 0 6.667-2.985 6.667-6.667v0-13.333c0-3.682-2.985-6.667-6.667-6.667v0z"></path>
<path fill="none" stroke="#fff" style="stroke: var(--color1, #fff)" stroke-linejoin="round" stroke-linecap="round" stroke-miterlimit="4" stroke-width="2.6667" d="M21.333 15.16c0.037 0.235 0.058 0.506 0.058 0.783 0 2.946-2.388 5.334-5.334 5.334-2.67 0-4.881-1.961-5.272-4.521l-0.004-0.030c-0.037-0.235-0.058-0.506-0.058-0.783 0-2.946 2.388-5.334 5.334-5.334 2.67 0 4.881 1.961 5.272 4.521l0.004 0.030z"></path>
<path fill="none" stroke="#fff" style="stroke: var(--color1, #fff)" stroke-linejoin="round" stroke-linecap="round" stroke-miterlimit="4" stroke-width="2.6667" d="M21.333 15.16c0.037 0.235 0.058 0.506 0.058 0.783 0 2.946-2.388 5.334-5.334 5.334-2.67 0-4.881-1.961-5.272-4.521l-0.004-0.030c-0.037-0.235-0.058-0.506-0.058-0.783 0-2.946 2.388-5.334 5.334-5.334 2.67 0 4.881 1.961 5.272 4.521l0.004 0.030zM23.333 8.667h0.013M23.333 8.667h0.013"></path>
<path fill="none" stroke="#000" style="stroke: var(--color2, #000)" stroke-linejoin="miter" stroke-linecap="butt" stroke-miterlimit="4" stroke-width="1.3333" d="M0.667 0.667h30.667v30.667h-30.667z"></path>
</symbol>
</defs>
</svg>
